<?xml version="1.0" encoding="utf-8"?>
<!-- Generator: Adobe Illustrator 18.0.0, SVG Export Plug-In . SVG Version: 6.00 Build 0)  -->
<!DOCTYPE svg PUBLIC "-//W3C//DTD SVG 1.1//EN" "http://www.w3.org/Graphics/SVG/1.1/DTD/svg11.dtd">
<svg version="1.1" id="Layer_1" xmlns="http://www.w3.org/2000/svg" xmlns:xlink="http://www.w3.org/1999/xlink" x="0px" y="0px"
	 viewBox="0 0 100.1 64.3" enable-background="new 0 0 100.1 64.3" xml:space="preserve">
<g>
	<path d="M99,17.1l-46.1,46c-0.8,0.8-1.7,1.2-2.8,1.2c-1.1,0-2-0.4-2.8-1.2l-46.1-46C0.4,16.3,0,15.4,0,14.3s0.4-2,1.2-2.8L11.5,1.2
		C12.3,0.4,13.2,0,14.3,0s2,0.4,2.8,1.2l33,33l33-33C83.8,0.4,84.8,0,85.8,0s2,0.4,2.8,1.2L99,11.4c0.8,0.8,1.2,1.7,1.2,2.8
		S99.7,16.3,99,17.1z"/>
</g>
</svg>
