<?xml version="1.0" standalone="no"?>
<!DOCTYPE svg PUBLIC "-//W3C//DTD SVG 1.1//EN" "http://www.w3.org/Graphics/SVG/1.1/DTD/svg11.dtd" >
<svg xmlns="http://www.w3.org/2000/svg" xmlns:xlink="http://www.w3.org/1999/xlink" version="1.1">
<metadata></metadata>
<defs>
<font id="air_americanaregular" horiz-adv-x="860" >
<font-face units-per-em="2048" ascent="1536" descent="-512" />
<missing-glyph horiz-adv-x="462" />
<glyph horiz-adv-x="0" />
<glyph unicode="&#xd;" horiz-adv-x="462" />
<glyph unicode=" "  horiz-adv-x="462" />
<glyph unicode="&#x09;" horiz-adv-x="462" />
<glyph unicode="&#xa0;" horiz-adv-x="462" />
<glyph unicode="!" horiz-adv-x="415" d="M0 0l25 203h204l-26 -203h-203zM51 410l150 1230h205l-152 -1230h-203z" />
<glyph unicode="&#x22;" horiz-adv-x="667" d="M154 1438l24 202h207l-39 -315l-47 -4l-35 117h-110zM446 1438l25 202h207l-39 -315l-47 -4l-37 117h-109z" />
<glyph unicode="$" horiz-adv-x="933" d="M0 0l25 203h204h170q43 2 78 32.5t39 73.5l39 322q6 43 -20.5 73.5t-71.5 32.5h-62h-6h-2q-61 2 -111.5 25.5t-86 62.5t-54 92.5t-14.5 112.5l2 17v2l35 282q12 100 78.5 179t160.5 112q51 18 109 18h61l25 205h207l-25 -205h103l-25 -202h-203h-168q-45 0 -79.5 -31 t-40.5 -76l-35 -282q-4 -45 22.5 -76t69.5 -33h63h2q55 0 103 -18q86 -33 133 -112t35 -179l-19 -142l-4 -36l-16 -142v-2l-4 -16q-16 -96 -81 -169t-155 -106q-25 -8 -50 -13t-52 -5h-2h-6h-60l-24 -203h-207l24 203h-104z" />
<glyph unicode="%" horiz-adv-x="1681" d="M2 993l41 338q12 100 79.5 179t160.5 112q51 18 110 18h60q57 0 104 -18q86 -33 133 -111.5t35 -179.5l-41 -338q-12 -102 -78.5 -181t-161.5 -112q-53 -18 -108 -18h-62q-55 0 -104 18q-86 33 -133 112t-35 181zM207 993q-6 -45 21.5 -76.5t70.5 -31.5h61q45 0 80 31.5 t41 76.5l41 338q4 45 -22.5 76t-71.5 31h-61q-43 0 -79 -31t-40 -76zM401 0l672 1640h205l-672 -1640h-205zM954 311l41 338q12 100 79 179t161 112q51 18 108 18h62q55 0 104 -18q86 -33 133.5 -111.5t34.5 -179.5l-41 -338q-12 -102 -79.5 -181t-159.5 -112 q-53 -18 -111 -18h-59q-59 0 -105 18q-86 33 -133 112t-35 181zM1157 311q-4 -45 22.5 -76.5t71.5 -31.5h62q43 0 78.5 31.5t40.5 76.5l41 338q6 45 -22 76t-71 31h-61q-45 0 -80 -31t-41 -76z" />
<glyph unicode="&#x26;" horiz-adv-x="942" d="M45 311l12 99l17 139l6 45v2l4 35q16 109 88 190q-25 39 -36 87t-5 102v2l39 319q12 100 79.5 179t160.5 112q51 18 110 18h60h106h205l-25 -202h-204h-107h-61q-43 0 -79 -31t-40 -76l-35 -278v-6q-6 -43 21.5 -75t72.5 -32h166l27 217h204l-26 -217h80l-25 -203h-80 l-92 -737h-203h-106h-62q-55 0 -104 18q-86 33 -133 112t-35 181zM250 309q-6 -43 21.5 -74.5t70.5 -31.5h61h107l65 534h-167q-43 0 -79 -30.5t-40 -75.5l-6 -43z" />
<glyph unicode="'" horiz-adv-x="374" d="M154 1438l24 202h207l-39 -315l-47 -4l-35 117h-110z" />
<glyph unicode="(" horiz-adv-x="755" d="M2 106l176 1428q12 100 79 179t161 112q57 20 108 20h179l-25 -205h-178q-45 0 -80 -30.5t-41 -75.5l-174 -1428q-6 -45 21.5 -75.5t70.5 -30.5h178l-24 -205h-179q-29 0 -54 5t-50 16q-86 33 -133 111.5t-35 178.5z" />
<glyph unicode=")" horiz-adv-x="757" d="M0 -205l25 205h178q45 0 79.5 30.5t41.5 75.5l174 1428q6 45 -21.5 75.5t-73.5 30.5h-176l25 205h178q29 0 54.5 -5t50.5 -15q86 -33 133 -112t34 -179l-176 -1428q-12 -100 -78.5 -179t-160.5 -111q-57 -20 -109 -21h-178z" />
<glyph unicode="*" horiz-adv-x="851" d="M123 1352l123 176l147 -92l25 204h203l-25 -202l166 90l80 -176l-115 -62l-84 -47l39 -45l84 -94l-162 -146l-59 68l-88 102l-115 -102l-76 -68l-127 146l109 94l49 45l-76 47z" />
<glyph unicode="+" d="M41 719l25 203h239l29 239h205l-31 -239h240l-25 -203h-240l-28 -240h-205l31 240h-240z" />
<glyph unicode="," horiz-adv-x="405" d="M0 0l25 203h206l-38 -316l-48 -4l-34 117h-111z" />
<glyph unicode="-" horiz-adv-x="921" d="M82 719l24 203h682l-24 -203h-682z" />
<glyph unicode="." horiz-adv-x="385" d="M0 0l25 203h206l-24 -203h-207z" />
<glyph unicode="/" horiz-adv-x="886" d="M0 0l672 1640h205l-674 -1640h-203z" />
<glyph unicode="0" horiz-adv-x="835" d="M2 311l125 1020q12 100 79.5 179t160.5 112q51 18 110 18h60q57 0 104 -18q86 -33 133 -111.5t35 -179.5l-125 -1020q-12 -102 -78.5 -181t-161.5 -112q-53 -18 -108 -18h-62q-55 0 -104 18q-86 33 -133 112t-35 181zM207 311q-6 -45 21.5 -76.5t70.5 -31.5h61 q45 0 80 31.5t41 76.5l125 1020q4 45 -22.5 76t-71.5 31h-61q-43 0 -79 -31t-40 -76z" />
<glyph unicode="1" horiz-adv-x="638" d="M61 1317l363 323h2h203l-11 -84l-192 -1556h-203l166 1354l-201 -180z" />
<glyph unicode="2" horiz-adv-x="823" d="M0 293l2 18l18 142l5 36l16 142q12 100 79.5 179t160.5 112q51 18 106 18q2 0 2 1t2 1v-2h62q45 2 78.5 33t39.5 76l35 282q4 45 -22.5 76t-71.5 31h-168h-203l25 202h203h168q57 0 104 -18q86 -33 133 -111.5t35 -179.5l-35 -282l-2 -19q-10 -59 -42 -112.5t-77 -92.5 t-101 -62.5t-118 -25.5h-4h-4h-64q-43 0 -77.5 -31.5t-38.5 -74.5l-39 -322q-6 -43 20.5 -73.5t69.5 -32.5h170h205l-27 -203h-203h-168h-4h-4q-27 0 -50 5t-46 13q-82 33 -129 106t-41 169z" />
<glyph unicode="3" horiz-adv-x="940" d="M0 0v2l10 84l15 119h204h187q4 2 8 2h2l8 4h2q2 0 3 1t3 1l2 2q2 0 3.5 1t3.5 1q2 2 4 2q2 2 3 2t3 2l2 2q2 0 6 4l2 2l6 7q2 2 3 2t3 2q0 2 1 2t1 2q4 0 4 4q2 2 3 4q4 0 4 4q2 2 2 4l4 4q0 2 2 4q0 2 1 3t1 3q2 2 2 5q2 2 2 6l2 4q0 2 1 3t1 3v2q2 4 2 12l23 181 l16 139q6 43 -20.5 73.5t-69.5 32.5h-66h-104h-10h-19l25 203h20h8h107h61q45 2 80 33t39 74l2 6l15 123l18 155q6 45 -21.5 76t-72.5 31h-60h-106h-186h-19l25 202h205h106h61q56 0 105 -18q74 -29 120 -92.5t50 -149.5v-10v-14q0 -4 -1 -9.5t-1 -9.5v-6l-29 -235l-6 -47 l-2 -13l-2 -24q-8 -53 -31.5 -102.5t-58.5 -88.5q55 -84 43 -190l-6 -37l-6 -53l-3 -25l-14 -106l-10 -99q-14 -102 -81 -181t-159 -112l-24 -6q-2 -2 -8 -2q-4 -2 -6.5 -2t-6.5 -2q-20 -4 -30 -4h-3q-6 0 -10 -2h-22h-168h-203z" />
<glyph unicode="4" horiz-adv-x="870" d="M66 717l75 614l37 309h205l-2 -18l-37 -291l-33 -278l-41 -334q-6 -43 20.5 -75t71.5 -32h168l56 441v12l57 457l12 100l2 18h203l-37 -309l-26 -207l-74 -602l-14 -112l-11 -99v-2l-39 -309h-204l4 18l35 291l12 101h-168h-6q-63 0 -115.5 24.5t-88.5 66.5t-53.5 97 t-8.5 119z" />
<glyph unicode="5" horiz-adv-x="858" d="M2 311l12 99h203l-12 -99q-4 -45 22.5 -75.5t69.5 -32.5h65q43 2 78 32.5t39 73.5l41 322q4 43 -22.5 74.5t-69.5 31.5h-63h-5h-4q-61 2 -111 25.5t-86 62.5t-54.5 92.5t-14.5 112.5l2 19l35 282q8 63 39 119.5t78 98.5t106.5 66.5t124.5 24.5h168h205l-27 -202h-203 h-167q-45 0 -80 -31t-39 -76l-35 -282q-6 -45 20.5 -76t69.5 -33h64v2q27 0 53 -5t51 -15q86 -33 133 -112t35 -179l-16 -142l-7 -36l-16 -142v-6l-2 -12q-10 -59 -42 -112.5t-77 -92.5t-101 -62.5t-118 -25.5h-4h-4h-62q-55 0 -107 20.5t-91 59.5q-45 47 -63.5 107.5 t-10.5 123.5z" />
<glyph unicode="6" horiz-adv-x="858" d="M2 311l88 719l2 19l35 282q8 63 39 119.5t78 98.5t106.5 66.5t124.5 24.5h168h205l-27 -202h-203h-167q-45 0 -80 -31t-39 -76l-49 -391h168v2q27 0 53 -5t51 -15q86 -33 133 -112t35 -179l-16 -142l-7 -36l-16 -142v-6l-2 -12q-10 -59 -42 -112.5t-77 -92.5t-101 -62.5 t-118 -25.5h-4h-4h-62q-55 0 -107 20.5t-91 59.5q-45 47 -63.5 107.5t-10.5 123.5zM205 311q-4 -45 22.5 -75.5t69.5 -32.5h65q43 2 78 32.5t39 73.5l41 322q4 43 -22.5 74.5t-69.5 31.5h-63h-9h-98z" />
<glyph unicode="7" horiz-adv-x="784" d="M82 1438l24 202h312h61q55 0 103 -18h2q80 -31 126 -102.5t42 -165.5v-23l-166 -1331h-203l2 18l35 279l53 440l25 205l49 401q0 41 -26.5 68t-67.5 27h-60h-293h-18z" />
<glyph unicode="8" horiz-adv-x="843" d="M2 311l35 283l4 37q16 109 88 190q-25 39 -36 87t-5 102v2l4 37l35 282q12 100 79.5 179t160.5 112q51 18 110 18h60q57 0 104 -18q86 -33 133 -111.5t35 -179.5l-35 -282l-4 -37v-2q-6 -53 -29.5 -101.5t-58.5 -87.5q27 -41 38 -89t3 -101l-4 -37l-35 -283 q-12 -102 -78.5 -181t-161.5 -112q-53 -18 -108 -18h-62q-55 0 -104 18q-86 33 -133 112t-35 181zM207 309q-6 -43 21.5 -74.5t70.5 -31.5h61q45 0 80 31.5t41 74.5l33 279l6 43q4 45 -22.5 75.5t-71.5 30.5h-61q-43 0 -79 -30.5t-40 -75.5l-6 -43zM297 1047 q-6 -43 21.5 -75t72.5 -32h60q45 0 79.5 32t40.5 75v6l35 278q4 45 -22.5 76t-71.5 31h-61q-43 0 -79 -31t-40 -76l-35 -278v-6z" />
<glyph unicode="9" horiz-adv-x="843" d="M2 311l12 99h203l-12 -99q-4 -45 22.5 -75.5t69.5 -32.5h65q43 2 78 32.5t39 75.5l41 330l8 59h-26h-142q-55 0 -104 19q-86 33 -133 111.5t-35 179.5l16 143l5 37l18 141v6l2 11q14 78 62.5 143t117.5 104q0 4 16.5 10.5t20.5 8.5q10 4 21.5 8t23.5 8q41 10 76 10h4h4 h62q94 0 168.5 -55t97.5 -147q2 -12 1 -8l-3 12t-2 10t4 -14q12 -53 6 -107l-84 -688q-2 -4 -2 -12l-16 -142l-7 -36l-16 -142v-6l-2 -12q-14 -78 -62.5 -142.5t-117.5 -105.5q-6 -6 -17.5 -10t-19.5 -8q-10 -4 -22.5 -7.5t-22.5 -7.5q-37 -12 -76 -12h-4h-4h-2h-60 q-57 0 -110 22.5t-94 63.5q-41 45 -58.5 105.5t-9.5 119.5zM291 1010q-4 -43 22.5 -74t69.5 -33h63h9h98l2 19l49 409q6 43 -20.5 74t-69.5 33h-65q-43 -2 -78 -33t-41 -74z" />
<glyph unicode=":" horiz-adv-x="415" d="M0 0l25 203h206l-24 -203h-207zM51 410l25 204h207l-25 -204h-207z" />
<glyph unicode=";" horiz-adv-x="456" d="M0 0l25 203h206l-38 -316l-48 -4l-34 117h-111zM51 410l25 204h207l-25 -204h-207z" />
<glyph unicode="=" horiz-adv-x="870" d="M20 514l25 203h682l-25 -203h-682zM72 924l24 204h682l-24 -204h-682z" />
<glyph unicode="?" horiz-adv-x="901" d="M0 0l25 203h206l-24 -203h-207zM51 410l4 43l4 36l2 11l17 131q12 100 78.5 179t160.5 112q49 18 107 18l2 2v-2h63q43 2 78 33t39 76l35 282q6 45 -21.5 76t-72.5 31h-166h-205l25 202h205h167q56 0 105 -18q86 -33 133 -111.5t35 -179.5l-35 -282l-2 -19h-2 q-10 -59 -41 -112.5t-77 -92.5t-102.5 -62.5t-117.5 -25.5h-2h-4h-64q-45 0 -78.5 -31.5t-39.5 -74.5l-27 -221h-203z" />
<glyph unicode="@" horiz-adv-x="1927" d="M25 106l176 1428q12 100 78.5 179t160.5 112q51 18 109 18h893h33h145q55 0 104 -18q86 -33 133.5 -112t34.5 -179l-135 -1102q-12 -102 -78.5 -180t-160.5 -113q-27 -8 -53.5 -13t-55.5 -5h-205h-194l24 205l25 204h-275l-24 -204l-25 -205h-205l52 409h-74l24 203h74 l58 475q8 63 39.5 120.5t78.5 98.5t106.5 66t123.5 25h61q63 0 117.5 -25t91.5 -66t54.5 -98t9.5 -121l-109 -882h197q45 0 79.5 30.5t38.5 75.5l136 1102q6 43 -22 74.5t-71 31.5h-145h-33h-893q-45 0 -79.5 -31.5t-41.5 -74.5l-174 -1428q-6 -45 22 -75.5t71 -30.5h178 l-25 -203h-178q-55 0 -104 19q-86 33 -133.5 111.5t-34.5 178.5zM809 733h274l60 475q4 45 -22.5 76t-71.5 31h-62q-43 0 -79 -31t-40 -76z" />
<glyph unicode="A" horiz-adv-x="876" d="M-18 410l24 202h74l88 719q8 63 40 120.5t79 98.5t106.5 65.5t122.5 24.5h62q63 0 117.5 -24.5t90.5 -65.5t54 -98q12 -39 13 -82q0 -19 -3 -39l-164 -1331h-203l25 203l24 207h-274l-25 -207l-24 -203h-205l51 410h-73zM285 612h274l53 441l35 278q1 6 1 12q0 38 -24 64 q-26 31 -71 31h-61q-43 0 -79 -31t-40 -76l-35 -278z" />
<glyph unicode="B" d="M0 0l86 700l4 37h-74l21 166l4 37h74l86 700h205h167q56 0 105 -18q86 -34 133 -112q37 -63 37 -139q0 -20 -2 -40l-35 -282l-4 -37q-8 -53 -31.5 -102.5t-58.5 -88.5q45 -69 45 -153q0 -18 -2 -37l-6 -37l-33 -283q-14 -102 -81 -181t-159 -112q-53 -18 -110 -18h-168 h-203zM229 203h168q43 0 79 31.5t40 76.5l35 277v6l4 37q1 8 1 16q0 35 -22 59q-28 30 -73 31h-166l-6 -37l-13 -112zM319 940h168q43 0 79 32t40 77l2 4l33 278q1 8 1 16q0 35 -22 60q-28 31 -73 31h-166l-47 -385z" />
<glyph unicode="C" horiz-adv-x="827" d="M8 311l12 99l25 202l88 719q12 100 80 179t160 112q51 18 110 18h371l-25 -202h-372q-43 0 -79 -31t-40 -76l-35 -278l-53 -441l-4 -24l-23 -178l-10 -99q-1 -8 -1 -16q0 -35 22 -61q28 -32 71 -31h373l-27 -203h-370q-55 0 -105 18q-86 33 -133 112q-37 63 -37 140 q0 20 2 41z" />
<glyph unicode="D" d="M0 0l201 1640h205h167q56 0 105 -18q86 -34 133 -112q37 -63 37 -139q0 -20 -2 -40l-125 -1020q-14 -102 -81 -181t-159 -112q-53 -18 -110 -18h-168h-203zM229 203h168q43 0 79 31.5t40 76.5l125 1020q1 8 1 16q0 35 -22 60q-28 31 -73 31h-166z" />
<glyph unicode="E" horiz-adv-x="858" d="M10 737l25 203h74l49 391q12 100 78.5 179t158.5 112q51 18 111 18h61h310l-25 -202h-18h-293h-60q-45 0 -79.5 -31t-41.5 -76l-34 -278l-13 -111h168h115h18l-24 -205h-19h-114h-170l-39 -325l-10 -86l-2 -15q-1 -7 -1 -13q0 -32 17 -56q20 -28 57 -37h189h202l-24 -203 v-2h-205h-168h-15t-18 2q-35 2 -71 16q-85 33 -133 112q-37 62 -38 138q0 21 3 43l12 99l14 106l11 96l16 125h-74z" />
<glyph unicode="F" horiz-adv-x="864" d="M0 0l35 287q0 6 1 12t1 12l12 99l12 106l13 96l16 125h-74l25 203h74l47 391q2 6 2 11.5t2 11.5q18 94 82.5 165.5t152.5 102.5h2q51 18 109 18h59h312l-25 -202h-20h-291h-62q-41 0 -73.5 -27t-42.5 -68l-50 -401h168h115h19l-25 -205h-21h-112h-168l-55 -440l-33 -279 l-4 -18h-203z" />
<glyph unicode="G" horiz-adv-x="823" d="M2 305l125 1026q8 63 39 119.5t79 98.5t107.5 66.5t124.5 24.5h60q55 0 108 -20t92 -61q18 -20 17.5 -18.5t-8 8.5t-13.5 13.5t4 -3.5q43 -45 61 -105q13 -43 13 -86q0 -18 -2 -37l-64 -516h-63h-139l63 516q1 5 1 11q0 36 -25 64q-27 32 -70 32h-61q-43 0 -79 -31 t-40 -76l-127 -1024q-1 -5 -1 -11q0 -36 24 -62q28 -31 71 -31h61q45 0 80 31.5t41 76.5l11 99h-181l25 202h182h139h64l-37 -301q-12 -100 -78.5 -179t-161.5 -114q-53 -18 -108 -18h-62q-63 0 -116.5 23.5t-90 65.5t-53.5 97q-14 42 -14 87q0 16 2 32z" />
<glyph unicode="H" horiz-adv-x="901" d="M-16 410l24 202h74l88 719l39 309h203l-2 -18l-35 -291l-35 -278l-53 -441h274l53 441l35 278l35 291l2 18h205l-39 -309l-164 -1331h-203l25 203l25 207h-275l-24 -207l-25 -203h-205l51 410h-73z" />
<glyph unicode="I" horiz-adv-x="415" d="M0 0l201 1640h205l-203 -1640h-203z" />
<glyph unicode="J" horiz-adv-x="876" d="M-41 410l25 202h73h205h135l-24 -202h-137l-11 -99q-1 -8 -1 -16q0 -35 22 -61q28 -31 71 -31h62q43 0 78 30.5t41 73.5l127 1026l34 289l3 18h204l-39 -305v-4l-125 -1020v-8q-16 -98 -81.5 -175t-157.5 -110q-53 -18 -109 -18h-61q-61 0 -117.5 24.5t-95.5 73.5 q-37 45 -52 100q-10 40 -10 80q0 16 2 33l13 99h-74z" />
<glyph unicode="K" horiz-adv-x="894" d="M-23 410l25 202h74l88 719l39 309h203l-3 -18l-34 -291l-35 -278l-53 -441h168q41 0 75.5 30t42.5 71l41 340l35 278l35 291l2 18h205l-39 -309l-74 -612q-2 -4 -2 -12q-10 -55 -36.5 -105.5t-67.5 -91.5q58 -73 57 -172v-19q-2 -6 -2 -18l-39 -301h-203l25 203l14 108v6 q0 37 -26 64q-28 29 -68 29h-170l-25 -207l-24 -203h-205l51 410h-74z" />
<glyph unicode="L" horiz-adv-x="819" d="M0 0l201 1640h205l-177 -1437h478l-25 -203h-682z" />
<glyph unicode="M" horiz-adv-x="1320" d="M-31 0l164 1331q8 63 39 120.5t78 98.5t106.5 65.5t124.5 24.5h62q123 0 198 -79q95 79 214 79h3h62q63 0 117.5 -24.5t91.5 -65.5t54 -98q12 -39 12 -81q0 -20 -3 -40l-164 -1331h-202l24 203l25 207l26 202l54 441l35 278q1 6 1 11q0 38 -24 65q-27 31 -72 31h-61 q-43 0 -78 -31t-41 -76l-88 -719l-27 -202l-49 -410h-205l52 410l24 202l88 719q1 6 1 12q1 38 -23 64q-26 31 -72 31h-59q-45 0 -80 -31t-41 -76l-33 -278l-55 -441l-25 -202l-24 -207l-27 -203h-203z" />
<glyph unicode="N" horiz-adv-x="856" d="M-4 0l164 1331q8 63 38.5 120.5t78 98.5t106.5 65.5t125 24.5h61q63 0 116.5 -24.5t90.5 -65.5q38 -41 56 -98q13 -40 12 -83q0 -19 -2 -38l-164 -1331h-205l164 1331q1 8 1 16q0 35 -22 60q-28 31 -73 31h-60q-45 0 -79.5 -31t-41.5 -76l-163 -1331h-203z" />
<glyph unicode="O" horiz-adv-x="841" d="M4 311l125 1020q12 100 79.5 179t160.5 112q51 18 110 18h60q57 0 104 -18q86 -34 133 -112q37 -63 38 -139q0 -20 -3 -40l-125 -1020q-12 -102 -78.5 -181t-161.5 -112q-53 -18 -108 -18h-62q-55 0 -104 18q-86 33 -133 112q-37 63 -37 140q0 20 2 41zM209 311 q-1 -8 -1 -16q0 -35 22 -61q28 -32 71 -31h61q45 0 80 31.5t41 76.5l125 1020q1 6 1 12q1 38 -23 64q-26 31 -72 31h-61q-43 0 -79 -31t-40 -76z" />
<glyph unicode="P" horiz-adv-x="847" d="M0 0l86 700l4 37h-74l25 203h74l86 700h205h167q55 0 105 -18q86 -34 133 -112q37 -63 37 -139q0 -20 -2 -40l-35 -282l-2 -19h-2q-10 -59 -41 -112.5t-77 -92.5t-102.5 -62.5t-117.5 -25.5h-2h-6h2h-168l-92 -737h-203zM319 940h170q43 2 78 33t39 76l35 282q1 8 1 16 q0 35 -22 60q-28 31 -73 31h-166l-47 -385z" />
<glyph unicode="Q" horiz-adv-x="841" d="M-41 410l25 202h73l88 719q12 98 79 178t161 113q51 18 109 18h61q53 0 103.5 -18t89.5 -55q39 -35 59 -83.5t22 -101.5q2 -14 1 -26.5t-3 -24.5l-125 -1020q-8 -63 -38.5 -119.5t-77.5 -99.5t-107.5 -67.5t-124.5 -24.5h-61q-61 0 -117.5 24.5t-95.5 73.5 q-37 45 -52 100q-10 40 -10 80q0 16 2 33l13 99h-74zM225 311q-1 -8 -1 -16q0 -35 22 -61q28 -31 71 -31h62q45 0 80 31.5t41 76.5l10 99l27 202l88 719q1 5 1 11q0 36 -25 64q-28 32 -71 32h-61q-45 0 -80 -32t-39 -75l-35 -278l-53 -441h135l-24 -202h-137z" />
<glyph unicode="R" horiz-adv-x="868" d="M0 0l90 737h-74l25 203h74l86 700h372q63 0 116.5 -24.5t90.5 -65.5q38 -41 56 -98q13 -40 12 -83q0 -19 -2 -38l-35 -282q-8 -61 -35.5 -114.5t-70.5 -94.5q33 -42 48 -96q10 -36 10 -73q0 -20 -3 -40l-78 -631h-205l27 203l51 428q1 8 1 16q0 35 -22 59q-28 30 -71 31 h-168l-66 -534l-26 -203h-203zM319 940h168q43 0 79 32t40 77l2 4l33 278q1 8 1 16q0 35 -22 60q-28 31 -73 31h-166l-47 -385z" />
<glyph unicode="S" horiz-adv-x="880" d="M-12 0l24 203h205h170q43 2 78 32.5t39 73.5l39 322q1 8 1 15q0 34 -22 60q-26 32 -71 31h-62h-6h-2q-61 2 -111.5 25.5t-86.5 62.5t-54 93q-15 44 -15 91q0 11 1 21l2 19l35 282q12 100 78.5 179t160.5 112q51 18 109 18h168h202l-24 -202h-203h-168q-45 0 -80 -31 t-41 -76l-35 -282q-1 -6 -1 -11q0 -38 24 -65q27 -31 70 -33h63v2l2 -2q55 0 103 -18q86 -33 133 -112q37 -63 37 -139q0 -19 -2 -40l-19 -142l-4 -36l-16 -142l-4 -18q-16 -96 -81 -169t-155 -106q-25 -8 -50.5 -13t-51.5 -5h-2h-7h-168h-202z" />
<glyph unicode="T" horiz-adv-x="798" d="M123 1438l24 202h132h118h121h82h229l-24 -202h-19h-211l-176 -1438h-204l178 1438h-47h-203z" />
<glyph unicode="U" horiz-adv-x="839" d="M4 311l164 1329h203l-162 -1329l-2 -16q-1 -35 23 -61q28 -32 71 -31h61q45 0 80 31.5t41 76.5l162 1329h205l-164 -1329q-8 -66 -39 -122t-78 -98t-107.5 -66.5t-123.5 -24.5h-62q-66 0 -119 24.5t-89 66.5q-36 43 -54 99q-12 39 -13 81q0 20 3 40z" />
<glyph unicode="V" horiz-adv-x="901" d="M0 0l201 1640h205l-177 -1437h168q43 0 79 31.5t40 76.5l164 1329h203l-162 -1329q-8 -66 -40 -122t-79 -98t-107.5 -66.5t-123.5 -24.5h-371z" />
<glyph unicode="W" horiz-adv-x="1347" d="M14 311l164 1329h203l-25 -202l-24 -205l-25 -205l-55 -440l-33 -277l-2 -16q-1 -35 23 -61q28 -32 71 -31h62q45 0 79.5 30.5t41.5 75.5v2l88 717l24 205l49 407h205l-51 -407l-25 -205l-88 -717v-2q-1 -6 -1 -12q-1 -37 23 -63q26 -30 73 -31h61q43 0 79 31.5t40 76.5 l35 277l53 440l24 205l27 205l25 202h202l-161 -1329q-8 -66 -40 -122t-79 -98t-107.5 -66.5t-124.5 -24.5h-59q-61 0 -112.5 21.5t-86.5 58.5q-47 -37 -103 -58.5t-116 -21.5h-61q-66 0 -119 24.5t-90 66.5q-36 43 -54 99q-12 39 -13 81q0 20 3 40z" />
<glyph unicode="X" horiz-adv-x="892" d="M0 0l37 301q0 4 1 9t1 9q23 111 104 191q-31 41 -46 91q-11 36 -11 74q0 16 2 32v12l76 612l39 309h203l-3 -18l-36 -291l-33 -278l-43 -340v-6q-1 -38 25 -65q28 -30 69 -30h61q43 0 77 30t42 71l43 340l33 278l37 291l2 18h203l-37 -309l-76 -612q0 -8 -2 -12 q-18 -115 -104 -197q31 -40 46 -88q12 -38 12 -80q0 -11 -1 -23q0 -12 -2 -18l-37 -301h-203h-2l27 203l12 108v6q0 37 -26 64q-28 29 -68 29h-62q-41 0 -74.5 -29t-43.5 -70l-13 -108l-24 -203h-2h-203z" />
<glyph unicode="Y" horiz-adv-x="892" d="M0 0l25 203h372q43 0 79 31.5t40 76.5l12 99h-168h-6q-63 0 -115.5 24.5t-88 66.5t-52.5 97q-13 38 -13 80q0 19 3 39l76 614l37 309h205l-3 -18l-36 -291l-33 -278l-41 -334q-1 -8 -1 -16q0 -33 22 -59q26 -32 71 -32h168l55 441l33 278l37 291l2 18h203l-37 -309 l-88 -719l-27 -202l-10 -99q-14 -102 -81 -181t-159 -112q-53 -18 -110 -18h-371z" />
<glyph unicode="Z" horiz-adv-x="886" d="M0 0l582 1438h-414l27 202h550h132l-584 -1437h405l-24 -203h-471h-203z" />
<glyph unicode="[" horiz-adv-x="749" d="M20 -203l252 2046h488l-25 -203h-284l-201 -1640h285l-27 -203h-488z" />
<glyph unicode="\" horiz-adv-x="729" d="M123 1640h203l270 -1640h-205z" />
<glyph unicode="]" horiz-adv-x="749" d="M-20 -203l24 203h285l200 1640h-284l26 203h488l-252 -2046h-487z" />
<glyph unicode="_" horiz-adv-x="1331" d="M0 -203l25 203h469h213h469l-25 -203h-469h-213h-469z" />
<glyph unicode="a" horiz-adv-x="876" d="M-18 410l24 202h74l88 719q8 63 40 120.5t79 98.5t106.5 65.5t122.5 24.5h62q63 0 117.5 -24.5t90.5 -65.5t54 -98q12 -39 13 -82q0 -19 -3 -39l-164 -1331h-203l25 203l24 207h-274l-25 -207l-24 -203h-205l51 410h-73zM285 612h274l53 441l35 278q1 6 1 12q0 38 -24 64 q-26 31 -71 31h-61q-43 0 -79 -31t-40 -76l-35 -278z" />
<glyph unicode="b" d="M0 0l86 700l4 37h-74l21 166l4 37h74l86 700h205h167q56 0 105 -18q86 -34 133 -112q37 -63 37 -139q0 -20 -2 -40l-35 -282l-4 -37q-8 -53 -31.5 -102.5t-58.5 -88.5q45 -69 45 -153q0 -18 -2 -37l-6 -37l-33 -283q-14 -102 -81 -181t-159 -112q-53 -18 -110 -18h-168 h-203zM229 203h168q43 0 79 31.5t40 76.5l35 277v6l4 37q1 8 1 16q0 35 -22 59q-28 30 -73 31h-166l-6 -37l-13 -112zM319 940h168q43 0 79 32t40 77l2 4l33 278q1 8 1 16q0 35 -22 60q-28 31 -73 31h-166l-47 -385z" />
<glyph unicode="c" horiz-adv-x="827" d="M8 311l12 99l25 202l88 719q12 100 80 179t160 112q51 18 110 18h371l-25 -202h-372q-43 0 -79 -31t-40 -76l-35 -278l-53 -441l-4 -24l-23 -178l-10 -99q-1 -8 -1 -16q0 -35 22 -61q28 -32 71 -31h373l-27 -203h-370q-55 0 -105 18q-86 33 -133 112q-37 63 -37 140 q0 20 2 41z" />
<glyph unicode="d" d="M0 0l201 1640h205h167q56 0 105 -18q86 -34 133 -112q37 -63 37 -139q0 -20 -2 -40l-125 -1020q-14 -102 -81 -181t-159 -112q-53 -18 -110 -18h-168h-203zM229 203h168q43 0 79 31.5t40 76.5l125 1020q1 8 1 16q0 35 -22 60q-28 31 -73 31h-166z" />
<glyph unicode="e" horiz-adv-x="854" d="M10 737l25 203h74l49 391q12 100 78.5 179t158.5 112q51 18 111 18h61h310l-25 -202h-18h-293h-60q-45 0 -79.5 -31t-41.5 -76l-34 -278l-13 -111h168h115h18l-24 -205h-19h-114h-170l-39 -325l-10 -86l-2 -15q-1 -7 -1 -13q0 -32 17 -56q20 -28 57 -37h189h202l-24 -203 v-2h-205h-168h-15t-18 2q-35 2 -71 16q-85 33 -133 112q-37 62 -38 138q0 21 3 43l12 99l14 106l11 96l16 125h-74z" />
<glyph unicode="f" d="M0 0l35 287q0 6 1 12t1 12l12 99l12 106l13 96l16 125h-74l25 203h74l47 391q2 6 2 11.5t2 11.5q18 94 82.5 165.5t152.5 102.5h2q51 18 109 18h59h312l-25 -202h-20h-291h-62q-41 0 -73.5 -27t-42.5 -68l-50 -401h168h115h19l-25 -205h-21h-112h-168l-55 -440l-33 -279 l-4 -18h-203z" />
<glyph unicode="g" horiz-adv-x="823" d="M2 305l125 1026q8 63 39 119.5t79 98.5t107.5 66.5t124.5 24.5h60q55 0 108 -20t92 -61q18 -20 17.5 -18.5t-8 8.5t-13.5 13.5t4 -3.5q43 -45 61 -105q13 -43 13 -86q0 -18 -2 -37l-64 -516h-63h-139l63 516q1 5 1 11q0 36 -25 64q-27 32 -70 32h-61q-43 0 -79 -31 t-40 -76l-127 -1024q-1 -5 -1 -11q0 -36 24 -62q28 -31 71 -31h61q45 0 80 31.5t41 76.5l11 99h-181l25 202h182h139h64l-37 -301q-12 -100 -78.5 -179t-161.5 -114q-53 -18 -108 -18h-62q-63 0 -116.5 23.5t-90 65.5t-53.5 97q-14 42 -14 87q0 16 2 32z" />
<glyph unicode="h" horiz-adv-x="901" d="M-16 410l24 202h74l88 719l39 309h203l-2 -18l-35 -291l-35 -278l-53 -441h274l53 441l35 278l35 291l2 18h205l-39 -309l-164 -1331h-203l25 203l25 207h-275l-24 -207l-25 -203h-205l51 410h-73z" />
<glyph unicode="i" horiz-adv-x="415" d="M0 0l201 1640h205l-203 -1640h-203z" />
<glyph unicode="j" horiz-adv-x="876" d="M-41 410l25 202h73h205h135l-24 -202h-137l-11 -99q-1 -8 -1 -16q0 -35 22 -61q28 -31 71 -31h62q43 0 78 30.5t41 73.5l127 1026l34 289l3 18h204l-39 -305v-4l-125 -1020v-8q-16 -98 -81.5 -175t-157.5 -110q-53 -18 -109 -18h-61q-61 0 -117.5 24.5t-95.5 73.5 q-37 45 -52 100q-10 40 -10 80q0 16 2 33l13 99h-74z" />
<glyph unicode="k" horiz-adv-x="894" d="M-23 410l25 202h74l88 719l39 309h203l-3 -18l-34 -291l-35 -278l-53 -441h168q41 0 75.5 30t42.5 71l41 340l35 278l35 291l2 18h205l-39 -309l-74 -612q-2 -4 -2 -12q-10 -55 -36.5 -105.5t-67.5 -91.5q58 -73 57 -172v-19q-2 -6 -2 -18l-39 -301h-203l25 203l14 108v6 q0 37 -26 64q-28 29 -68 29h-170l-25 -207l-24 -203h-205l51 410h-74z" />
<glyph unicode="l" horiz-adv-x="819" d="M0 0l201 1640h205l-177 -1437h478l-25 -203h-682z" />
<glyph unicode="m" horiz-adv-x="1320" d="M-31 0l164 1331q8 63 39 120.5t78 98.5t106.5 65.5t124.5 24.5h62q123 0 198 -79q95 79 214 79h3h62q63 0 117.5 -24.5t91.5 -65.5t54 -98q12 -39 12 -81q0 -20 -3 -40l-164 -1331h-202l24 203l25 207l26 202l54 441l35 278q1 6 1 11q0 38 -24 65q-27 31 -72 31h-61 q-43 0 -78 -31t-41 -76l-88 -719l-27 -202l-49 -410h-205l52 410l24 202l88 719q1 6 1 12q1 38 -23 64q-26 31 -72 31h-59q-45 0 -80 -31t-41 -76l-33 -278l-55 -441l-25 -202l-24 -207l-27 -203h-203z" />
<glyph unicode="n" horiz-adv-x="856" d="M-4 0l164 1331q8 63 38.5 120.5t78 98.5t106.5 65.5t125 24.5h61q63 0 116.5 -24.5t90.5 -65.5q38 -41 56 -98q13 -40 12 -83q0 -19 -2 -38l-164 -1331h-205l164 1331q1 8 1 16q0 35 -22 60q-28 31 -73 31h-60q-45 0 -79.5 -31t-41.5 -76l-163 -1331h-203z" />
<glyph unicode="o" horiz-adv-x="841" d="M4 311l125 1020q12 100 79.5 179t160.5 112q51 18 110 18h60q57 0 104 -18q86 -34 133 -112q37 -63 38 -139q0 -20 -3 -40l-125 -1020q-12 -102 -78.5 -181t-161.5 -112q-53 -18 -108 -18h-62q-55 0 -104 18q-86 33 -133 112q-37 63 -37 140q0 20 2 41zM209 311 q-1 -8 -1 -16q0 -35 22 -61q28 -32 71 -31h61q45 0 80 31.5t41 76.5l125 1020q1 6 1 12q1 38 -23 64q-26 31 -72 31h-61q-43 0 -79 -31t-40 -76z" />
<glyph unicode="p" horiz-adv-x="847" d="M0 0l86 700l4 37h-74l25 203h74l86 700h205h167q55 0 105 -18q86 -33 133 -112q37 -62 37 -139q0 -19 -2 -40l-35 -282l-2 -19h-2q-10 -59 -41 -112.5t-77 -92.5t-102.5 -62.5t-117.5 -25.5h-2h-6h2h-168l-92 -737h-203zM319 940h170q43 2 78 33t39 76l35 282q1 8 1 16 q0 35 -22 60q-28 31 -73 31h-166l-47 -385z" />
<glyph unicode="q" horiz-adv-x="841" d="M-41 410l25 202h73l88 719q12 98 79 178t161 113q51 18 109 18h61q53 0 103.5 -18t89.5 -55q39 -35 59 -83.5t22 -101.5q2 -14 1 -26.5t-3 -24.5l-125 -1020q-8 -63 -38.5 -119.5t-77.5 -99.5t-107.5 -67.5t-124.5 -24.5h-61q-61 0 -117.5 24.5t-95.5 73.5 q-37 45 -52 100q-10 40 -10 80q0 16 2 33l13 99h-74zM225 311q-1 -8 -1 -16q0 -35 22 -61q28 -31 71 -31h62q45 0 80 31.5t41 76.5l10 99l27 202l88 719q1 5 1 11q0 36 -25 64q-28 32 -71 32h-61q-45 0 -80 -32t-39 -75l-35 -278l-53 -441h135l-24 -202h-137z" />
<glyph unicode="r" horiz-adv-x="868" d="M0 0l90 737h-74l25 203h74l86 700h372q63 0 116.5 -24.5t90.5 -65.5q38 -41 56 -98q13 -40 12 -83q0 -19 -2 -38l-35 -282q-8 -61 -35.5 -114.5t-70.5 -94.5q33 -42 48 -96q10 -36 10 -73q0 -20 -3 -40l-78 -631h-205l27 203l51 428q1 8 1 16q0 35 -22 59q-28 30 -71 31 h-168l-66 -534l-26 -203h-203zM319 940h168q43 0 79 32t40 77l2 4l33 278q1 8 1 16q0 35 -22 60q-28 31 -73 31h-166l-47 -385z" />
<glyph unicode="s" horiz-adv-x="880" d="M-12 0l24 203h205h170q43 2 78 32.5t39 73.5l39 322q1 8 1 15q0 34 -22 60q-26 32 -71 31h-62h-6h-2q-61 2 -111.5 25.5t-86.5 62.5t-54 93q-15 44 -15 91q0 11 1 21l2 19l35 282q12 100 78.5 179t160.5 112q51 18 109 18h168h202l-24 -202h-203h-168q-45 0 -80 -31 t-41 -76l-35 -282q-1 -6 -1 -11q0 -38 24 -65q27 -31 70 -33h63v2l2 -2q55 0 103 -18q86 -33 133 -112q37 -63 37 -139q0 -19 -2 -40l-19 -142l-4 -36l-16 -142l-4 -18q-16 -96 -81 -169t-155 -106q-25 -8 -50.5 -13t-51.5 -5h-2h-7h-168h-202z" />
<glyph unicode="t" horiz-adv-x="798" d="M123 1438l24 202h132h118h121h82h229l-24 -202h-19h-211l-176 -1438h-204l178 1438h-47h-203z" />
<glyph unicode="u" horiz-adv-x="839" d="M4 311l164 1329h203l-162 -1329l-2 -16q-1 -35 23 -61q28 -32 71 -31h61q45 0 80 31.5t41 76.5l162 1329h205l-164 -1329q-8 -66 -39 -122t-78 -98t-107.5 -66.5t-123.5 -24.5h-62q-66 0 -119 24.5t-89 66.5q-36 43 -54 99q-12 39 -13 81q0 20 3 40z" />
<glyph unicode="v" horiz-adv-x="901" d="M0 0l201 1640h205l-177 -1437h168q43 0 79 31.5t40 76.5l164 1329h203l-162 -1329q-8 -66 -40 -122t-79 -98t-107.5 -66.5t-123.5 -24.5h-371z" />
<glyph unicode="w" horiz-adv-x="1347" d="M14 311l164 1329h203l-25 -202l-24 -205l-25 -205l-55 -440l-33 -277l-2 -16q-1 -35 23 -61q28 -32 71 -31h62q45 0 79.5 30.5t41.5 75.5v2l88 717l24 205l49 407h205l-51 -407l-25 -205l-88 -717v-2q-1 -6 -1 -12q-1 -37 23 -63q26 -30 73 -31h61q43 0 79 31.5t40 76.5 l35 277l53 440l24 205l27 205l25 202h202l-161 -1329q-8 -66 -40 -122t-79 -98t-107.5 -66.5t-124.5 -24.5h-59q-61 0 -112.5 21.5t-86.5 58.5q-47 -37 -103 -58.5t-116 -21.5h-61q-66 0 -119 24.5t-90 66.5q-36 43 -54 99q-12 39 -13 81q0 20 3 40z" />
<glyph unicode="x" horiz-adv-x="892" d="M0 0l37 301q0 4 1 9t1 9q23 111 104 191q-31 41 -46 91q-11 36 -11 74q0 16 2 32v12l76 612l39 309h203l-3 -18l-36 -291l-33 -278l-43 -340v-6q-1 -38 25 -65q28 -30 69 -30h61q43 0 77 30t42 71l43 340l33 278l37 291l2 18h203l-37 -309l-76 -612q0 -8 -2 -12 q-18 -115 -104 -197q31 -40 46 -88q12 -38 12 -80q0 -11 -1 -23q0 -12 -2 -18l-37 -301h-203h-2l27 203l12 108v6q0 37 -26 64q-28 29 -68 29h-62q-41 0 -74.5 -29t-43.5 -70l-13 -108l-24 -203h-2h-203z" />
<glyph unicode="y" horiz-adv-x="892" d="M0 0l25 203h372q43 0 79 31.5t40 76.5l12 99h-168h-6q-63 0 -115.5 24.5t-88 66.5t-52.5 97q-13 38 -13 80q0 19 3 39l76 614l37 309h205l-3 -18l-36 -291l-33 -278l-41 -334q-1 -8 -1 -16q0 -33 22 -59q26 -32 71 -32h168l55 441l33 278l37 291l2 18h203l-37 -309 l-88 -719l-27 -202l-10 -99q-14 -102 -81 -181t-159 -112q-53 -18 -110 -18h-371z" />
<glyph unicode="z" horiz-adv-x="886" d="M0 0l582 1438h-414l27 202h550h132l-584 -1437h405l-24 -203h-471h-203z" />
<glyph unicode="&#xad;" horiz-adv-x="921" d="M82 719l24 203h682l-24 -203h-682z" />
<glyph unicode="&#xc7;" horiz-adv-x="825" d="M2 311l12 99l25 202l88 719q12 100 79.5 179t160.5 112q51 18 110 18h371l-25 -202h-372q-43 0 -79 -31t-40 -76l-35 -278l-53 -441l-4 -24l-23 -178l-10 -99q-6 -45 21.5 -76.5t70.5 -31.5h373l-27 -203h-133l-25 -203h-206l24 203h-31q-55 0 -104 18q-86 33 -133 112 t-35 181z" />
<glyph unicode="&#xe7;" horiz-adv-x="825" d="M2 311l12 99l25 202l88 719q12 100 79.5 179t160.5 112q51 18 110 18h371l-25 -202h-372q-43 0 -79 -31t-40 -76l-35 -278l-53 -441l-4 -24l-23 -178l-10 -99q-6 -45 21.5 -76.5t70.5 -31.5h373l-27 -203h-133l-25 -203h-206l24 203h-31q-55 0 -104 18q-86 33 -133 112 t-35 181z" />
<glyph unicode="&#xff;" horiz-adv-x="1705" />
<glyph unicode="&#x2000;" horiz-adv-x="922" />
<glyph unicode="&#x2001;" horiz-adv-x="1845" />
<glyph unicode="&#x2002;" horiz-adv-x="922" />
<glyph unicode="&#x2003;" horiz-adv-x="1845" />
<glyph unicode="&#x2004;" horiz-adv-x="615" />
<glyph unicode="&#x2005;" horiz-adv-x="461" />
<glyph unicode="&#x2006;" horiz-adv-x="307" />
<glyph unicode="&#x2007;" horiz-adv-x="307" />
<glyph unicode="&#x2008;" horiz-adv-x="230" />
<glyph unicode="&#x2009;" horiz-adv-x="369" />
<glyph unicode="&#x200a;" horiz-adv-x="102" />
<glyph unicode="&#x2010;" horiz-adv-x="921" d="M82 719l24 203h682l-24 -203h-682z" />
<glyph unicode="&#x2011;" horiz-adv-x="921" d="M82 719l24 203h682l-24 -203h-682z" />
<glyph unicode="&#x2012;" horiz-adv-x="921" d="M82 719l24 203h682l-24 -203h-682z" />
<glyph unicode="&#x2013;" horiz-adv-x="1239" d="M82 719l35 203h989l-35 -203h-989z" />
<glyph unicode="&#x2014;" horiz-adv-x="2263" d="M82 719l70 203h1978l-70 -203h-1978z" />
<glyph unicode="&#x202f;" horiz-adv-x="369" />
<glyph unicode="&#x205f;" horiz-adv-x="461" />
<glyph unicode="&#x20ac;" horiz-adv-x="901" d="M0 530l25 203h73l21 174h-72l25 203h73l27 221q8 63 40 119.5t79 98.5t106.5 66.5t122.5 24.5h62h106h203l-25 -202h-18h-184h-107h-61q-45 0 -80 -31t-41 -76l-27 -221h303l-24 -203h-303l-21 -174h301l-24 -203h-304l-26 -219q-4 -45 22.5 -76.5t71.5 -31.5h62h106h184 h19l-25 -203h-203h-106h-62q-63 0 -116 24.5t-90 67.5t-55.5 99.5t-10.5 119.5l27 219h-74z" />
<glyph unicode="&#x25fc;" horiz-adv-x="1638" d="M0 0v1638h1638v-1638h-1638z" />
<glyph unicode="&#xfb01;" horiz-adv-x="1705" />
<glyph unicode="&#xfb02;" horiz-adv-x="1705" />
</font>
</defs>
</svg>
